<svg xmlns="http://www.w3.org/2000/svg" viewBox="0 0 5150 2320" role="img" aria-label="plumb" fill="currentColor">
  <!-- plumb wordmark. p = mirrored b; bowl provides the full stem; descender bob is a filled plumb shape. -->
  <defs><clipPath id='bc' clipPathUnits='userSpaceOnUse'><rect x='-300' y='-336.5' width='2200' height='2936.5'/></clipPath></defs>
  <g transform="translate(0,1560) scale(1,-1)">
    <g clip-path='url(#bc)'><g transform='translate(0 873) scale(1 -1)'><path d='M303 1467V76.5L119 -6Q115.5 -8 111.75 -9.5Q108 -11 104 -11Q100.5 -11 97.75 -8.5Q95 -6 95 -2V1375Q95 1380.5 92.25 1383.75Q89.5 1387 82.5 1387H11Q7 1387 5.0 1389.0Q3 1391 3 1393.5Q3 1397 5.25 1398.5Q7.5 1400 11 1401L274.5 1474.5Q283 1477 286.25 1477.5Q289.5 1478 293 1478Q298 1478 300.5 1474.75Q303 1471.5 303 1467ZM288 721 278 732Q354 821.5 422.5 857.25Q491 893 574 893Q680 893 762.75 840.5Q845.5 788 892.75 691.0Q940 594 940 460.5Q940 316 887.5 207.75Q835 99.5 742.0 39.75Q649 -20 528 -20Q428 -20 362.0 20.75Q296 61.5 255 131L272 139Q302.5 79 354.75 43.5Q407 8 478 8Q547 8 603.75 52.0Q660.5 96 694.0 191.5Q727.5 287 727.5 440.5Q727.5 580 698.75 670.75Q670 761.5 619.75 806.25Q569.5 851 504 851Q453.5 851 397.5 820.25Q341.5 789.5 288 721Z'/></g></g><path d='M201.00 -220.00 L381.00 -421.60 L201.00 -700.00 L21.00 -421.60 Z' fill='currentColor'/>
    <g transform="translate(1028,0)"><path d="M348 1467V53Q348 40.5 353.75 33.0Q359.5 25.5 372 23L431 13.5Q437 13 439.0 11.0Q441 9 441 6Q441 3.5 439.0 1.75Q437 0 433 0H52Q49.5 0 47.25 1.75Q45 3.5 45 6Q45 8.5 48.0 11.0Q51 13.5 58 14.5L116 23Q129 25.5 134.5 33.0Q140 40.5 140 52V1375Q140 1380.5 137.25 1383.75Q134.5 1387 127.5 1387H56Q52 1387 50.0 1389.0Q48 1391 48 1393.5Q48 1397 50.25 1398.5Q52.5 1400 56 1401L319.5 1474.5Q328 1477 331.25 1477.5Q334.5 1478 338 1478Q343 1478 345.5 1474.75Q348 1471.5 348 1467Z"/></g>
    <g transform="translate(1509,0)"><path d="M689.5 31V158V163V785Q689.5 790.5 686.75 793.75Q684 797 677 797H605.5Q601.5 797 599.5 799.0Q597.5 801 597.5 803.5Q597.5 807 599.75 808.5Q602 810 605.5 811L869 884.5Q877 887 880.5 887.5Q884 888 887.5 888Q892.5 888 895.0 884.75Q897.5 881.5 897.5 877V53Q897.5 40.5 903.25 33.0Q909 25.5 921.5 23L980.5 13.5Q986.5 13 988.5 11.0Q990.5 9 990.5 6Q990.5 3.5 988.5 1.75Q986.5 0 982.5 0H716.5Q703.5 0 696.5 7.75Q689.5 15.5 689.5 31ZM125 238V785Q125 790.5 122.0 793.75Q119 797 111.5 797H40Q36 797 34.0 799.0Q32 801 32 803.5Q32 807 34.25 808.5Q36.5 810 40 811L304.5 884.5Q313 887 316.25 887.5Q319.5 888 323 888Q328 888 330.5 884.75Q333 881.5 333 877V259Q333 164 376.5 120.0Q420 76 492 76Q537 76 583.5 95.5Q630 115 677 158L711 188.5L720 179L685 147.5Q583.5 56.5 504.0 20.25Q424.5 -16 354.5 -16Q255 -16 190.0 45.75Q125 107.5 125 238Z"/></g>
    <g transform="translate(2534,0)"><path d="M338 878V52Q338 41 344.5 32.75Q351 24.5 363 22L422 13Q431 12 431 6Q431 0 422 0H43Q39.5 0 37.25 2.0Q35 4 35 6Q35 8 37.75 10.0Q40.5 12 45 13L106 23Q119 25.5 124.5 32.5Q130 39.5 130 49V785Q130 791 127.5 795.0Q125 799 118 799H44Q41.5 799 39.25 801.0Q37 803 37 805Q37 808 39.25 810.0Q41.5 812 46 813L310 887Q317 889.5 320.75 889.75Q324.5 890 328 890Q333.5 890 335.75 886.25Q338 882.5 338 878ZM320 688 311 696 345 728Q445 822 524.25 857.5Q603.5 893 673 893Q772.5 893 836.25 831.25Q900 769.5 900 639V53Q900 39 907.5 30.75Q915 22.5 929 20L973 13Q982 11 982 6Q982 0 971 0H607Q599 0 599 6Q599 12 609 13L664 21Q683 25 689.0 36.75Q695 48.5 695 64V617Q695 708 650.5 754.5Q606 801 536 801Q488 801 443.75 782.0Q399.5 763 353 719ZM875.5 688 866.5 696 897.5 731Q976 817.5 1044.25 855.25Q1112.5 893 1185.5 893Q1278 893 1336.75 831.25Q1395.5 769.5 1412.5 638L1489 55Q1491 39.5 1498.5 30.5Q1506 21.5 1520 19L1563 12Q1567 11.5 1569.0 10.0Q1571 8.5 1571 6Q1571 3.5 1569.0 1.75Q1567 0 1563 0H1187Q1179 0 1179 6Q1179 11 1189 13L1244 21Q1263 24.5 1270.0 37.0Q1277 49.5 1275 66L1207.5 617Q1195.5 708 1159.75 754.5Q1124 801 1059.5 801Q1020 801 983.0 781.5Q946 762 905.5 722Z"/></g>
    <g transform="translate(4112,0)"><path d="M303 1467V76.5L119 -6Q115.5 -8 111.75 -9.5Q108 -11 104 -11Q100.5 -11 97.75 -8.5Q95 -6 95 -2V1375Q95 1380.5 92.25 1383.75Q89.5 1387 82.5 1387H11Q7 1387 5.0 1389.0Q3 1391 3 1393.5Q3 1397 5.25 1398.5Q7.5 1400 11 1401L274.5 1474.5Q283 1477 286.25 1477.5Q289.5 1478 293 1478Q298 1478 300.5 1474.75Q303 1471.5 303 1467ZM288 721 278 732Q354 821.5 422.5 857.25Q491 893 574 893Q680 893 762.75 840.5Q845.5 788 892.75 691.0Q940 594 940 460.5Q940 316 887.5 207.75Q835 99.5 742.0 39.75Q649 -20 528 -20Q428 -20 362.0 20.75Q296 61.5 255 131L272 139Q302.5 79 354.75 43.5Q407 8 478 8Q547 8 603.75 52.0Q660.5 96 694.0 191.5Q727.5 287 727.5 440.5Q727.5 580 698.75 670.75Q670 761.5 619.75 806.25Q569.5 851 504 851Q453.5 851 397.5 820.25Q341.5 789.5 288 721Z"/></g>
  </g>
</svg>
