<svg xmlns="http://www.w3.org/2000/svg" viewBox="0 0 32 32" role="img" aria-label="plumb" fill="#1c1a16">
  <defs><clipPath id="pc" clipPathUnits="userSpaceOnUse"><rect x="-300" y="-336.5" width="2200" height="2936.5"/></clipPath></defs>
  <rect width="32" height="32" fill="#f3efe6"/>
  <g transform="translate(16,16) scale(0.0150659) translate(-471.5,96.5) scale(1,-1)">
    <g clip-path="url(#pc)"><g transform="translate(0 873) scale(1 -1)"><path d="M303 1467V76.5L119 -6Q115.5 -8 111.75 -9.5Q108 -11 104 -11Q100.5 -11 97.75 -8.5Q95 -6 95 -2V1375Q95 1380.5 92.25 1383.75Q89.5 1387 82.5 1387H11Q7 1387 5.0 1389.0Q3 1391 3 1393.5Q3 1397 5.25 1398.5Q7.5 1400 11 1401L274.5 1474.5Q283 1477 286.25 1477.5Q289.5 1478 293 1478Q298 1478 300.5 1474.75Q303 1471.5 303 1467ZM288 721 278 732Q354 821.5 422.5 857.25Q491 893 574 893Q680 893 762.75 840.5Q845.5 788 892.75 691.0Q940 594 940 460.5Q940 316 887.5 207.75Q835 99.5 742.0 39.75Q649 -20 528 -20Q428 -20 362.0 20.75Q296 61.5 255 131L272 139Q302.5 79 354.75 43.5Q407 8 478 8Q547 8 603.75 52.0Q660.5 96 694.0 191.5Q727.5 287 727.5 440.5Q727.5 580 698.75 670.75Q670 761.5 619.75 806.25Q569.5 851 504 851Q453.5 851 397.5 820.25Q341.5 789.5 288 721Z"/></g></g>
    <path d="M201.00 -220.00 L381.00 -421.60 L201.00 -700.00 L21.00 -421.60 Z"/>
    <path d="M201.00 -302.58 L312.05 -426.95 L201.00 -598.70 L89.95 -426.95 Z" fill="#f3efe6"/>
  </g>
</svg>
